<svg xmlns="http://www.w3.org/2000/svg" xmlns:xlink="http://www.w3.org/1999/xlink" width="682" zoomAndPan="magnify" viewBox="0 0 511.5 185.249993" height="247" preserveAspectRatio="xMidYMid meet" version="1.0"><defs><g/><clipPath id="4299a73d01"><path d="M 0.78125 0 L 145.695312 0 L 145.695312 183.757812 L 0.78125 183.757812 Z M 0.78125 0 " clip-rule="nonzero"/></clipPath></defs><g clip-path="url(#4299a73d01)"><path fill="#f8bc14" d="M 73.285156 130.808594 C 41.074219 130.808594 14.960938 104.699219 14.960938 72.484375 C 14.960938 40.28125 41.074219 14.171875 73.285156 14.171875 C 105.488281 14.171875 131.597656 40.28125 131.597656 72.484375 C 131.597656 104.699219 105.488281 130.808594 73.285156 130.808594 Z M 73.285156 0.00390625 C 33.25 0.00390625 0.792969 32.453125 0.792969 72.484375 C 0.792969 136.714844 73.285156 183.855469 73.285156 183.855469 C 73.285156 183.855469 145.765625 136.714844 145.765625 72.484375 C 145.765625 32.453125 113.308594 0.00390625 73.285156 0.00390625 " fill-opacity="1" fill-rule="nonzero"/></g><path fill="#f8bc14" d="M 97.996094 82.953125 C 95.578125 82.953125 90.5625 82.953125 90.5625 78.878906 C 90.5625 75.402344 94.515625 71.4375 97.996094 71.4375 C 101.472656 71.4375 104.3125 74.273438 104.3125 77.753906 C 104.3125 80.960938 101.890625 82.953125 97.996094 82.953125 Z M 85.761719 87.945312 C 85.761719 88.34375 85.441406 88.675781 85.03125 88.675781 L 61.527344 88.675781 C 61.128906 88.675781 60.796875 88.34375 60.796875 87.945312 L 60.796875 82.164062 C 60.796875 81.765625 61.128906 81.445312 61.527344 81.445312 L 85.03125 81.445312 C 85.441406 81.445312 85.761719 81.765625 85.761719 82.164062 Z M 48.574219 82.953125 C 44.675781 82.953125 42.257812 80.960938 42.257812 77.753906 C 42.257812 74.273438 45.085938 71.4375 48.574219 71.4375 C 52.042969 71.4375 56.007812 75.402344 56.007812 78.878906 C 56.007812 82.953125 50.984375 82.953125 48.574219 82.953125 Z M 53.539062 54.566406 C 54.460938 52.363281 57.269531 50.503906 59.660156 50.503906 L 86.910156 50.503906 C 89.296875 50.503906 92.097656 52.363281 93.03125 54.566406 L 96.789062 63.546875 C 90.84375 62.125 83 61.40625 73.285156 61.40625 C 63.558594 61.40625 55.726562 62.125 49.769531 63.546875 Z M 110.714844 75.285156 C 110.714844 71.007812 108.003906 67.726562 102.621094 65.414062 L 106.605469 65.015625 C 107.011719 64.976562 107.382812 64.78125 107.644531 64.46875 C 107.90625 64.148438 108.03125 63.75 107.992188 63.339844 L 107.78125 61.128906 C 107.703125 60.300781 106.992188 59.679688 106.148438 59.738281 L 97.769531 59.648438 L 95.253906 53.636719 C 93.941406 50.523438 90.28125 48.085938 86.910156 48.085938 L 59.660156 48.085938 C 56.28125 48.085938 52.617188 50.523438 51.316406 53.636719 L 48.789062 59.648438 L 40.410156 59.738281 C 39.566406 59.679688 38.855469 60.300781 38.777344 61.128906 L 38.574219 63.339844 C 38.535156 63.75 38.652344 64.148438 38.914062 64.46875 C 39.175781 64.78125 39.546875 64.976562 39.953125 65.015625 L 43.9375 65.414062 C 38.554688 67.726562 35.84375 71.007812 35.84375 75.285156 L 35.84375 76.023438 C 35.835938 79.859375 35.816406 83.816406 38.914062 86.925781 C 39.265625 87.277344 39.664062 87.617188 40.089844 87.9375 L 40.089844 95.507812 C 40.089844 96.738281 41.101562 97.75 42.335938 97.75 L 52.578125 97.75 C 53.8125 97.75 54.8125 96.738281 54.8125 95.507812 L 54.8125 92.503906 C 59.796875 93.125 65.898438 93.417969 73.285156 93.417969 C 80.660156 93.417969 86.773438 93.125 91.746094 92.503906 L 91.746094 95.507812 C 91.746094 96.738281 92.75 97.75 93.980469 97.75 L 104.234375 97.75 C 105.46875 97.75 106.46875 96.738281 106.46875 95.507812 L 106.46875 87.9375 C 106.894531 87.617188 107.292969 87.277344 107.644531 86.925781 C 110.742188 83.816406 110.734375 79.859375 110.714844 76.023438 L 110.714844 75.285156 " fill-opacity="1" fill-rule="nonzero"/><g fill="#ffffff" fill-opacity="1"><g transform="translate(177.015688, 130.807211)"><g><path d="M 69.097656 -59.714844 L 59.03125 -59.714844 C 57.582031 -59.714844 56.898438 -59.203125 55.875 -57.921875 C 54.9375 -56.640625 37.703125 -33.011719 37.703125 -33.011719 C 37.703125 -33.011719 20.558594 -56.640625 19.621094 -57.921875 C 18.597656 -59.203125 17.914062 -59.714844 16.464844 -59.714844 L 6.398438 -59.714844 C 5.203125 -59.714844 4.265625 -58.691406 4.265625 -57.582031 L 4.265625 -2.132812 C 4.265625 -0.9375 5.203125 0 6.398438 0 L 19.707031 0 C 20.898438 0 21.839844 -0.9375 21.839844 -2.132812 L 21.839844 -28.492188 C 21.839844 -28.492188 30.28125 -16.292969 31.734375 -14.246094 C 33.355469 -11.773438 34.292969 -12.027344 34.976562 -12.027344 L 40.519531 -12.027344 C 41.203125 -12.027344 42.140625 -11.773438 43.761719 -14.246094 C 45.125 -16.292969 53.570312 -28.492188 53.570312 -28.492188 L 53.570312 -2.132812 C 53.570312 -0.9375 54.59375 0 55.703125 0 L 69.097656 0 C 70.207031 0 71.230469 -0.9375 71.230469 -2.132812 L 71.230469 -57.582031 C 71.230469 -58.691406 70.207031 -59.714844 69.097656 -59.714844 Z M 69.097656 -59.714844 "/></g></g></g><g fill="#ffffff" fill-opacity="1"><g transform="translate(252.502011, 130.807211)"><g><path d="M 28.917969 -46.492188 C 15.527344 -46.492188 4.265625 -35.914062 4.265625 -22.777344 C 4.265625 -9.640625 15.527344 1.023438 28.917969 1.023438 C 42.3125 1.023438 53.570312 -9.640625 53.570312 -22.777344 C 53.570312 -35.914062 42.3125 -46.492188 28.917969 -46.492188 Z M 28.917969 -13.050781 C 23.800781 -13.050781 19.621094 -17.402344 19.621094 -22.777344 C 19.621094 -28.152344 23.800781 -32.5 28.917969 -32.5 C 34.121094 -32.5 38.300781 -28.152344 38.300781 -22.777344 C 38.300781 -17.402344 34.121094 -13.050781 28.917969 -13.050781 Z M 28.917969 -13.050781 "/></g></g></g><g fill="#ffffff" fill-opacity="1"><g transform="translate(310.332211, 130.807211)"><g><path d="M 28.917969 -46.492188 C 15.527344 -46.492188 4.265625 -35.914062 4.265625 -22.777344 C 4.265625 -9.640625 15.527344 1.023438 28.917969 1.023438 C 42.3125 1.023438 53.570312 -9.640625 53.570312 -22.777344 C 53.570312 -35.914062 42.3125 -46.492188 28.917969 -46.492188 Z M 28.917969 -13.050781 C 23.800781 -13.050781 19.621094 -17.402344 19.621094 -22.777344 C 19.621094 -28.152344 23.800781 -32.5 28.917969 -32.5 C 34.121094 -32.5 38.300781 -28.152344 38.300781 -22.777344 C 38.300781 -17.402344 34.121094 -13.050781 28.917969 -13.050781 Z M 28.917969 -13.050781 "/></g></g></g><g fill="#ffffff" fill-opacity="1"><g transform="translate(368.162411, 130.807211)"><g><path d="M 55.363281 -22.777344 C 55.363281 -35.914062 46.234375 -46.492188 33.695312 -46.492188 C 29.003906 -46.492188 24.652344 -45.039062 21.070312 -42.566406 L 21.070312 -57.582031 C 21.070312 -58.773438 20.132812 -59.714844 18.9375 -59.714844 L 6.398438 -59.714844 C 5.203125 -59.714844 4.265625 -58.773438 4.265625 -57.582031 L 4.265625 -2.132812 C 4.265625 -0.9375 5.203125 0 6.398438 0 L 18.9375 0 C 20.132812 0 21.070312 -0.9375 21.070312 -2.132812 L 21.070312 -4.4375 C 22.863281 -1.960938 29.003906 1.023438 33.695312 1.023438 C 46.234375 1.023438 55.363281 -9.640625 55.363281 -22.777344 Z M 38.558594 -22.691406 C 38.558594 -16.976562 34.890625 -12.371094 29.941406 -12.371094 C 24.996094 -12.371094 21.070312 -16.976562 21.070312 -22.691406 C 21.070312 -28.40625 24.996094 -33.097656 29.941406 -33.097656 C 34.890625 -33.097656 38.558594 -28.40625 38.558594 -22.691406 Z M 38.558594 -22.691406 "/></g></g></g><g fill="#ffffff" fill-opacity="1"><g transform="translate(427.783798, 130.807211)"><g><path d="M 50.328125 -45.296875 L 38.300781 -45.296875 C 36.253906 -45.296875 35.914062 -44.699219 35.144531 -43.078125 C 34.890625 -42.566406 28.917969 -21.582031 28.917969 -21.582031 C 28.917969 -21.582031 21.753906 -42.394531 21.410156 -43.078125 C 20.644531 -44.699219 20.300781 -45.296875 18.253906 -45.296875 L 6.398438 -45.296875 C 4.351562 -45.296875 3.925781 -44.101562 4.691406 -42.226562 C 5.203125 -40.945312 16.632812 -13.394531 21.070312 -2.730469 C 19.960938 2.644531 10.578125 2.304688 10.578125 2.304688 C 9.46875 2.304688 8.53125 3.328125 8.53125 4.605469 L 8.53125 15.609375 C 8.53125 16.890625 9.382812 17.828125 10.578125 17.828125 C 15.527344 17.828125 29.6875 18.9375 37.191406 -0.0859375 C 38.132812 -2.472656 51.609375 -40.859375 52.207031 -42.480469 C 52.804688 -44.1875 52.292969 -45.296875 50.328125 -45.296875 Z M 50.328125 -45.296875 "/></g></g></g></svg>