<svg xmlns="http://www.w3.org/2000/svg" xmlns:xlink="http://www.w3.org/1999/xlink" width="144" zoomAndPan="magnify" viewBox="0 0 108 45.749998" height="61" preserveAspectRatio="xMidYMid meet" version="1.0"><defs><g/><clipPath id="c289088c29"><path d="M 0.292969 0 L 36.097656 0 L 36.097656 45.5 L 0.292969 45.5 Z M 0.292969 0 " clip-rule="nonzero"/></clipPath></defs><g clip-path="url(#c289088c29)"><path fill="#f9bc14" d="M 18.191406 32.28125 C 10.238281 32.28125 3.796875 25.839844 3.796875 17.890625 C 3.796875 9.941406 10.238281 3.496094 18.191406 3.496094 C 26.136719 3.496094 32.582031 9.941406 32.582031 17.890625 C 32.582031 25.839844 26.136719 32.28125 18.191406 32.28125 Z M 18.191406 0 C 8.308594 0 0.300781 8.007812 0.300781 17.890625 C 0.300781 33.742188 18.191406 45.375 18.191406 45.375 C 18.191406 45.375 36.078125 33.742188 36.078125 17.890625 C 36.078125 8.007812 28.066406 0 18.191406 0 " fill-opacity="1" fill-rule="nonzero"/></g><path fill="#f9bc14" d="M 24.289062 20.472656 C 23.691406 20.472656 22.453125 20.472656 22.453125 19.46875 C 22.453125 18.609375 23.429688 17.628906 24.289062 17.628906 C 25.148438 17.628906 25.847656 18.332031 25.847656 19.1875 C 25.847656 19.980469 25.25 20.472656 24.289062 20.472656 Z M 21.269531 21.703125 C 21.269531 21.804688 21.1875 21.882812 21.089844 21.882812 L 15.289062 21.882812 C 15.1875 21.882812 15.109375 21.804688 15.109375 21.703125 L 15.109375 20.277344 C 15.109375 20.179688 15.1875 20.101562 15.289062 20.101562 L 21.089844 20.101562 C 21.1875 20.101562 21.269531 20.179688 21.269531 20.277344 Z M 12.089844 20.472656 C 11.128906 20.472656 10.53125 19.980469 10.53125 19.1875 C 10.53125 18.332031 11.230469 17.628906 12.089844 17.628906 C 12.945312 17.628906 13.925781 18.609375 13.925781 19.46875 C 13.925781 20.472656 12.6875 20.472656 12.089844 20.472656 Z M 13.316406 13.46875 C 13.542969 12.921875 14.238281 12.464844 14.828125 12.464844 L 21.550781 12.464844 C 22.140625 12.464844 22.832031 12.921875 23.0625 13.46875 L 23.992188 15.683594 C 22.523438 15.332031 20.585938 15.15625 18.191406 15.15625 C 15.789062 15.15625 13.855469 15.332031 12.386719 15.683594 Z M 27.425781 18.578125 C 27.425781 17.523438 26.757812 16.714844 25.429688 16.144531 L 26.414062 16.046875 C 26.511719 16.035156 26.605469 15.988281 26.667969 15.910156 C 26.734375 15.832031 26.765625 15.734375 26.753906 15.632812 L 26.703125 15.085938 C 26.683594 14.882812 26.507812 14.730469 26.300781 14.742188 L 24.234375 14.722656 L 23.613281 13.238281 C 23.289062 12.46875 22.382812 11.867188 21.550781 11.867188 L 14.828125 11.867188 C 13.992188 11.867188 13.089844 12.46875 12.765625 13.238281 L 12.144531 14.722656 L 10.078125 14.742188 C 9.867188 14.730469 9.691406 14.882812 9.671875 15.085938 L 9.625 15.632812 C 9.613281 15.734375 9.640625 15.832031 9.707031 15.910156 C 9.773438 15.988281 9.863281 16.035156 9.964844 16.046875 L 10.945312 16.144531 C 9.617188 16.714844 8.949219 17.523438 8.949219 18.578125 L 8.949219 18.761719 C 8.945312 19.710938 8.941406 20.6875 9.707031 21.453125 C 9.792969 21.539062 9.890625 21.625 9.996094 21.703125 L 9.996094 23.570312 C 9.996094 23.875 10.246094 24.125 10.550781 24.125 L 13.078125 24.125 C 13.382812 24.125 13.628906 23.875 13.628906 23.570312 L 13.628906 22.828125 C 14.859375 22.984375 16.367188 23.054688 18.191406 23.054688 C 20.007812 23.054688 21.519531 22.984375 22.746094 22.828125 L 22.746094 23.570312 C 22.746094 23.875 22.992188 24.125 23.296875 24.125 L 25.828125 24.125 C 26.132812 24.125 26.378906 23.875 26.378906 23.570312 L 26.378906 21.703125 C 26.484375 21.625 26.582031 21.539062 26.667969 21.453125 C 27.433594 20.6875 27.433594 19.710938 27.425781 18.761719 L 27.425781 18.578125 " fill-opacity="1" fill-rule="nonzero"/><g fill="#ffffff" fill-opacity="1"><g transform="translate(38.622395, 28.238733)"><g><path d="M 1.1875 0 L 1.1875 -8.078125 L 0.890625 -9.5625 L 1.203125 -10.453125 L 4.015625 -10.453125 L 6.921875 -4.828125 L 7.21875 -4.828125 L 9.609375 -10.453125 L 12.546875 -10.453125 L 12.703125 -9.5625 L 12.546875 -8.140625 L 12.546875 0 L 9.875 0 L 9.921875 -1.25 L 9.921875 -5.375 L 9.75 -5.375 L 9.171875 -3.96875 L 7.828125 -1.484375 L 6.0625 -1.484375 L 4.015625 -5.375 L 3.875 -5.375 L 3.875 -4.1875 L 4.015625 0 Z M 1.1875 0 "/></g></g></g><g fill="#ffffff" fill-opacity="1"><g transform="translate(52.208266, 28.238733)"><g><path d="M 5.609375 0.140625 C 4.972656 0.140625 4.359375 0.0664062 3.765625 -0.078125 C 3.171875 -0.234375 2.632812 -0.507812 2.15625 -0.90625 C 1.675781 -1.300781 1.296875 -1.847656 1.015625 -2.546875 C 0.734375 -3.242188 0.59375 -4.140625 0.59375 -5.234375 C 0.59375 -6.328125 0.734375 -7.222656 1.015625 -7.921875 C 1.296875 -8.617188 1.675781 -9.164062 2.15625 -9.5625 C 2.632812 -9.957031 3.171875 -10.226562 3.765625 -10.375 C 4.359375 -10.53125 4.972656 -10.609375 5.609375 -10.609375 C 6.234375 -10.609375 6.84375 -10.53125 7.4375 -10.375 C 8.039062 -10.21875 8.578125 -9.941406 9.046875 -9.546875 C 9.523438 -9.148438 9.90625 -8.601562 10.1875 -7.90625 C 10.46875 -7.207031 10.609375 -6.316406 10.609375 -5.234375 C 10.609375 -4.148438 10.46875 -3.253906 10.1875 -2.546875 C 9.90625 -1.847656 9.523438 -1.300781 9.046875 -0.90625 C 8.578125 -0.519531 8.039062 -0.25 7.4375 -0.09375 C 6.84375 0.0625 6.234375 0.140625 5.609375 0.140625 Z M 5.609375 -2.359375 C 6.335938 -2.359375 6.882812 -2.578125 7.25 -3.015625 C 7.625 -3.453125 7.8125 -4.191406 7.8125 -5.234375 C 7.8125 -6.273438 7.625 -7.007812 7.25 -7.4375 C 6.882812 -7.875 6.335938 -8.09375 5.609375 -8.09375 C 4.878906 -8.09375 4.328125 -7.867188 3.953125 -7.421875 C 3.585938 -6.984375 3.40625 -6.253906 3.40625 -5.234375 C 3.40625 -4.203125 3.585938 -3.460938 3.953125 -3.015625 C 4.328125 -2.578125 4.878906 -2.359375 5.609375 -2.359375 Z M 5.609375 -2.359375 "/></g></g></g><g fill="#ffffff" fill-opacity="1"><g transform="translate(63.414023, 28.238733)"><g><path d="M 5.609375 0.140625 C 4.972656 0.140625 4.359375 0.0664062 3.765625 -0.078125 C 3.171875 -0.234375 2.632812 -0.507812 2.15625 -0.90625 C 1.675781 -1.300781 1.296875 -1.847656 1.015625 -2.546875 C 0.734375 -3.242188 0.59375 -4.140625 0.59375 -5.234375 C 0.59375 -6.328125 0.734375 -7.222656 1.015625 -7.921875 C 1.296875 -8.617188 1.675781 -9.164062 2.15625 -9.5625 C 2.632812 -9.957031 3.171875 -10.226562 3.765625 -10.375 C 4.359375 -10.53125 4.972656 -10.609375 5.609375 -10.609375 C 6.234375 -10.609375 6.84375 -10.53125 7.4375 -10.375 C 8.039062 -10.21875 8.578125 -9.941406 9.046875 -9.546875 C 9.523438 -9.148438 9.90625 -8.601562 10.1875 -7.90625 C 10.46875 -7.207031 10.609375 -6.316406 10.609375 -5.234375 C 10.609375 -4.148438 10.46875 -3.253906 10.1875 -2.546875 C 9.90625 -1.847656 9.523438 -1.300781 9.046875 -0.90625 C 8.578125 -0.519531 8.039062 -0.25 7.4375 -0.09375 C 6.84375 0.0625 6.234375 0.140625 5.609375 0.140625 Z M 5.609375 -2.359375 C 6.335938 -2.359375 6.882812 -2.578125 7.25 -3.015625 C 7.625 -3.453125 7.8125 -4.191406 7.8125 -5.234375 C 7.8125 -6.273438 7.625 -7.007812 7.25 -7.4375 C 6.882812 -7.875 6.335938 -8.09375 5.609375 -8.09375 C 4.878906 -8.09375 4.328125 -7.867188 3.953125 -7.421875 C 3.585938 -6.984375 3.40625 -6.253906 3.40625 -5.234375 C 3.40625 -4.203125 3.585938 -3.460938 3.953125 -3.015625 C 4.328125 -2.578125 4.878906 -2.359375 5.609375 -2.359375 Z M 5.609375 -2.359375 "/></g></g></g><g fill="#ffffff" fill-opacity="1"><g transform="translate(74.619781, 28.238733)"><g><path d="M 1.1875 0 L 1.1875 -8.09375 L 0.890625 -9.578125 L 1.1875 -10.46875 L 6.203125 -10.46875 C 7.316406 -10.46875 8.207031 -10.257812 8.875 -9.84375 C 9.550781 -9.425781 9.890625 -8.753906 9.890625 -7.828125 C 9.890625 -7.367188 9.8125 -6.953125 9.65625 -6.578125 C 9.5 -6.203125 9.269531 -5.910156 8.96875 -5.703125 C 9.644531 -5.484375 10.140625 -5.148438 10.453125 -4.703125 C 10.765625 -4.265625 10.921875 -3.742188 10.921875 -3.140625 C 10.921875 -2.054688 10.609375 -1.257812 9.984375 -0.75 C 9.359375 -0.25 8.445312 0 7.25 0 Z M 3.84375 -6.40625 L 6.171875 -6.40625 C 6.515625 -6.40625 6.757812 -6.484375 6.90625 -6.640625 C 7.050781 -6.796875 7.125 -7 7.125 -7.25 C 7.125 -7.582031 7.015625 -7.804688 6.796875 -7.921875 C 6.578125 -8.035156 6.320312 -8.09375 6.03125 -8.09375 L 3.84375 -8.09375 Z M 3.84375 -2.359375 L 6.796875 -2.359375 C 7.148438 -2.359375 7.410156 -2.398438 7.578125 -2.484375 C 7.753906 -2.578125 7.867188 -2.691406 7.921875 -2.828125 C 7.984375 -2.972656 8.015625 -3.117188 8.015625 -3.265625 C 8.015625 -3.523438 7.921875 -3.742188 7.734375 -3.921875 C 7.554688 -4.109375 7.296875 -4.203125 6.953125 -4.203125 L 3.84375 -4.203125 Z M 3.84375 -2.359375 "/></g></g></g><g fill="#ffffff" fill-opacity="1"><g transform="translate(85.988155, 28.238733)"><g><path d="M 3.96875 0 L 3.96875 -4.4375 L 0.296875 -9.578125 L 0.296875 -10.46875 L 3.40625 -10.46875 L 5.171875 -7.125 L 5.46875 -7.125 L 7.234375 -10.46875 L 10.328125 -10.46875 L 10.328125 -9.578125 L 6.5625 -4.34375 L 6.65625 -2.859375 L 6.65625 0 Z M 3.96875 0 "/></g></g></g><g fill="#ffffff" fill-opacity="1"><g transform="translate(96.628757, 28.238733)"><g/></g></g></svg>