<svg xmlns="http://www.w3.org/2000/svg" xmlns:xlink="http://www.w3.org/1999/xlink" width="127" zoomAndPan="magnify" viewBox="0 0 95.25 95.999999" height="128" preserveAspectRatio="xMidYMid meet" version="1.0"><defs><clipPath id="2cc854351f"><path d="M 19.816406 0.375 L 94.308594 0.375 L 94.308594 95 L 19.816406 95 Z M 19.816406 0.375 " clip-rule="nonzero"/></clipPath></defs><g clip-path="url(#2cc854351f)"><path fill="#f8bc14" d="M 57.113281 67.664062 C 40.542969 67.664062 27.113281 54.234375 27.113281 37.660156 C 27.113281 21.097656 40.542969 7.664062 57.113281 7.664062 C 73.679688 7.664062 87.113281 21.097656 87.113281 37.660156 C 87.113281 54.234375 73.679688 67.664062 57.113281 67.664062 Z M 57.113281 0.378906 C 36.519531 0.378906 19.824219 17.066406 19.824219 37.660156 C 19.824219 70.703125 57.113281 94.953125 57.113281 94.953125 C 57.113281 94.953125 94.398438 70.703125 94.398438 37.660156 C 94.398438 17.066406 77.703125 0.378906 57.113281 0.378906 " fill-opacity="1" fill-rule="nonzero"/></g><path fill="#f8bc14" d="M 69.828125 43.046875 C 68.582031 43.046875 66.003906 43.046875 66.003906 40.953125 C 66.003906 39.160156 68.035156 37.121094 69.828125 37.121094 C 71.617188 37.121094 73.074219 38.582031 73.074219 40.371094 C 73.074219 42.019531 71.832031 43.046875 69.828125 43.046875 Z M 63.53125 45.617188 C 63.53125 45.820312 63.367188 45.992188 63.15625 45.992188 L 51.066406 45.992188 C 50.863281 45.992188 50.691406 45.820312 50.691406 45.617188 L 50.691406 42.640625 C 50.691406 42.4375 50.863281 42.273438 51.066406 42.273438 L 63.15625 42.273438 C 63.367188 42.273438 63.53125 42.4375 63.53125 42.640625 Z M 44.402344 43.046875 C 42.398438 43.046875 41.15625 42.019531 41.15625 40.371094 C 41.15625 38.582031 42.609375 37.121094 44.402344 37.121094 C 46.1875 37.121094 48.226562 39.160156 48.226562 40.953125 C 48.226562 43.046875 45.644531 43.046875 44.402344 43.046875 Z M 46.957031 28.445312 C 47.433594 27.308594 48.878906 26.355469 50.105469 26.355469 L 64.125 26.355469 C 65.351562 26.355469 66.792969 27.308594 67.273438 28.445312 L 69.207031 33.0625 C 66.148438 32.332031 62.113281 31.964844 57.113281 31.964844 C 52.109375 31.964844 48.082031 32.332031 45.019531 33.0625 Z M 76.371094 39.101562 C 76.371094 36.902344 74.976562 35.214844 72.207031 34.023438 L 74.253906 33.820312 C 74.464844 33.800781 74.65625 33.699219 74.789062 33.539062 C 74.925781 33.375 74.988281 33.167969 74.96875 32.957031 L 74.859375 31.820312 C 74.820312 31.394531 74.457031 31.074219 74.019531 31.105469 L 69.710938 31.058594 L 68.417969 27.964844 C 67.742188 26.367188 65.859375 25.109375 64.125 25.109375 L 50.105469 25.109375 C 48.367188 25.109375 46.484375 26.367188 45.8125 27.964844 L 44.511719 31.058594 L 40.203125 31.105469 C 39.769531 31.074219 39.40625 31.394531 39.363281 31.820312 L 39.261719 32.957031 C 39.238281 33.167969 39.300781 33.375 39.433594 33.539062 C 39.570312 33.699219 39.757812 33.800781 39.96875 33.820312 L 42.019531 34.023438 C 39.25 35.214844 37.855469 36.902344 37.855469 39.101562 L 37.855469 39.480469 C 37.851562 41.457031 37.839844 43.492188 39.433594 45.089844 C 39.613281 45.269531 39.820312 45.445312 40.039062 45.609375 L 40.039062 49.503906 C 40.039062 50.140625 40.558594 50.660156 41.195312 50.660156 L 46.464844 50.660156 C 47.097656 50.660156 47.613281 50.140625 47.613281 49.503906 L 47.613281 47.960938 C 50.175781 48.277344 53.316406 48.429688 57.113281 48.429688 C 60.910156 48.429688 64.054688 48.277344 66.613281 47.960938 L 66.613281 49.503906 C 66.613281 50.140625 67.128906 50.660156 67.761719 50.660156 L 73.035156 50.660156 C 73.667969 50.660156 74.183594 50.140625 74.183594 49.503906 L 74.183594 45.609375 C 74.40625 45.445312 74.609375 45.269531 74.789062 45.089844 C 76.382812 43.492188 76.378906 41.457031 76.371094 39.480469 L 76.371094 39.101562 " fill-opacity="1" fill-rule="nonzero"/></svg>